<svg xmlns="http://www.w3.org/2000/svg" viewBox="0 -0.5 16 16" shape-rendering="crispEdges"><rect x="3" y="1" width="3" height="1" fill="#14463d"/><rect x="10" y="1" width="3" height="1" fill="#14463d"/><rect x="2" y="2" width="1" height="1" fill="#14463d"/><rect x="3" y="2" width="3" height="1" fill="#f4f7f5"/><rect x="6" y="2" width="1" height="1" fill="#14463d"/><rect x="9" y="2" width="1" height="1" fill="#14463d"/><rect x="10" y="2" width="3" height="1" fill="#f4f7f5"/><rect x="13" y="2" width="1" height="1" fill="#14463d"/><rect x="2" y="3" width="1" height="1" fill="#14463d"/><rect x="3" y="3" width="1" height="1" fill="#f4f7f5"/><rect x="4" y="3" width="1" height="1" fill="#0c1012"/><rect x="5" y="3" width="1" height="1" fill="#f4f7f5"/><rect x="6" y="3" width="4" height="1" fill="#14463d"/><rect x="10" y="3" width="1" height="1" fill="#f4f7f5"/><rect x="11" y="3" width="1" height="1" fill="#0c1012"/><rect x="12" y="3" width="1" height="1" fill="#f4f7f5"/><rect x="13" y="3" width="1" height="1" fill="#14463d"/><rect x="2" y="4" width="1" height="1" fill="#14463d"/><rect x="3" y="4" width="1" height="1" fill="#7fe0bf"/><rect x="4" y="4" width="8" height="1" fill="#3dbf98"/><rect x="12" y="4" width="1" height="1" fill="#7fe0bf"/><rect x="13" y="4" width="1" height="1" fill="#14463d"/><rect x="1" y="5" width="1" height="1" fill="#14463d"/><rect x="2" y="5" width="1" height="1" fill="#7fe0bf"/><rect x="3" y="5" width="2" height="1" fill="#3dbf98"/><rect x="5" y="5" width="1" height="1" fill="#2a8f72"/><rect x="6" y="5" width="4" height="1" fill="#3dbf98"/><rect x="10" y="5" width="1" height="1" fill="#2a8f72"/><rect x="11" y="5" width="2" height="1" fill="#3dbf98"/><rect x="13" y="5" width="1" height="1" fill="#7fe0bf"/><rect x="14" y="5" width="1" height="1" fill="#14463d"/><rect x="1" y="6" width="1" height="1" fill="#14463d"/><rect x="2" y="6" width="12" height="1" fill="#3dbf98"/><rect x="14" y="6" width="1" height="1" fill="#14463d"/><rect x="1" y="7" width="1" height="1" fill="#14463d"/><rect x="2" y="7" width="1" height="1" fill="#3dbf98"/><rect x="3" y="7" width="10" height="1" fill="#14463d"/><rect x="13" y="7" width="1" height="1" fill="#3dbf98"/><rect x="14" y="7" width="1" height="1" fill="#14463d"/><rect x="2" y="8" width="1" height="1" fill="#14463d"/><rect x="3" y="8" width="2" height="1" fill="#3dbf98"/><rect x="5" y="8" width="6" height="1" fill="#bdf2d9"/><rect x="11" y="8" width="2" height="1" fill="#3dbf98"/><rect x="13" y="8" width="1" height="1" fill="#14463d"/><rect x="1" y="9" width="2" height="1" fill="#14463d"/><rect x="3" y="9" width="2" height="1" fill="#3dbf98"/><rect x="5" y="9" width="6" height="1" fill="#bdf2d9"/><rect x="11" y="9" width="2" height="1" fill="#3dbf98"/><rect x="13" y="9" width="2" height="1" fill="#14463d"/><rect x="0" y="10" width="1" height="1" fill="#14463d"/><rect x="1" y="10" width="1" height="1" fill="#7fe0bf"/><rect x="2" y="10" width="1" height="1" fill="#3dbf98"/><rect x="3" y="10" width="1" height="1" fill="#14463d"/><rect x="4" y="10" width="1" height="1" fill="#3dbf98"/><rect x="5" y="10" width="6" height="1" fill="#bdf2d9"/><rect x="11" y="10" width="1" height="1" fill="#3dbf98"/><rect x="12" y="10" width="1" height="1" fill="#14463d"/><rect x="13" y="10" width="1" height="1" fill="#3dbf98"/><rect x="14" y="10" width="1" height="1" fill="#7fe0bf"/><rect x="15" y="10" width="1" height="1" fill="#14463d"/><rect x="0" y="11" width="1" height="1" fill="#14463d"/><rect x="1" y="11" width="2" height="1" fill="#3dbf98"/><rect x="3" y="11" width="2" height="1" fill="#14463d"/><rect x="5" y="11" width="1" height="1" fill="#3dbf98"/><rect x="6" y="11" width="4" height="1" fill="#bdf2d9"/><rect x="10" y="11" width="1" height="1" fill="#3dbf98"/><rect x="11" y="11" width="2" height="1" fill="#14463d"/><rect x="13" y="11" width="2" height="1" fill="#3dbf98"/><rect x="15" y="11" width="1" height="1" fill="#14463d"/><rect x="1" y="12" width="4" height="1" fill="#14463d"/><rect x="5" y="12" width="2" height="1" fill="#3dbf98"/><rect x="7" y="12" width="2" height="1" fill="#14463d"/><rect x="9" y="12" width="2" height="1" fill="#3dbf98"/><rect x="11" y="12" width="4" height="1" fill="#14463d"/><rect x="2" y="13" width="1" height="1" fill="#14463d"/><rect x="4" y="13" width="2" height="1" fill="#14463d"/><rect x="7" y="13" width="2" height="1" fill="#14463d"/><rect x="10" y="13" width="2" height="1" fill="#14463d"/><rect x="13" y="13" width="1" height="1" fill="#14463d"/></svg>
