<svg xmlns="http://www.w3.org/2000/svg" viewBox="0 0 16 15" shape-rendering="crispEdges"><rect x="2" y="1" width="3" height="1" fill="#1b5a4f"/><rect x="11" y="1" width="3" height="1" fill="#1b5a4f"/><rect x="1" y="2" width="1" height="1" fill="#1b5a4f"/><rect x="2" y="2" width="2" height="1" fill="#f1f4f2"/><rect x="4" y="2" width="1" height="1" fill="#0c1012"/><rect x="5" y="2" width="1" height="1" fill="#1b5a4f"/><rect x="10" y="2" width="1" height="1" fill="#1b5a4f"/><rect x="11" y="2" width="2" height="1" fill="#f1f4f2"/><rect x="13" y="2" width="1" height="1" fill="#0c1012"/><rect x="14" y="2" width="1" height="1" fill="#1b5a4f"/><rect x="1" y="3" width="1" height="1" fill="#1b5a4f"/><rect x="2" y="3" width="1" height="1" fill="#f1f4f2"/><rect x="3" y="3" width="2" height="1" fill="#0c1012"/><rect x="5" y="3" width="1" height="1" fill="#1b5a4f"/><rect x="6" y="3" width="4" height="1" fill="#3dbf98"/><rect x="10" y="3" width="1" height="1" fill="#1b5a4f"/><rect x="11" y="3" width="1" height="1" fill="#f1f4f2"/><rect x="12" y="3" width="2" height="1" fill="#0c1012"/><rect x="14" y="3" width="1" height="1" fill="#1b5a4f"/><rect x="1" y="4" width="1" height="1" fill="#1b5a4f"/><rect x="2" y="4" width="12" height="1" fill="#3dbf98"/><rect x="14" y="4" width="1" height="1" fill="#1b5a4f"/><rect x="0" y="5" width="1" height="1" fill="#1b5a4f"/><rect x="1" y="5" width="14" height="1" fill="#3dbf98"/><rect x="15" y="5" width="1" height="1" fill="#1b5a4f"/><rect x="0" y="6" width="1" height="1" fill="#1b5a4f"/><rect x="1" y="6" width="4" height="1" fill="#3dbf98"/><rect x="5" y="6" width="1" height="1" fill="#1b5a4f"/><rect x="6" y="6" width="4" height="1" fill="#3dbf98"/><rect x="10" y="6" width="1" height="1" fill="#1b5a4f"/><rect x="11" y="6" width="4" height="1" fill="#3dbf98"/><rect x="15" y="6" width="1" height="1" fill="#1b5a4f"/><rect x="0" y="7" width="1" height="1" fill="#1b5a4f"/><rect x="1" y="7" width="14" height="1" fill="#3dbf98"/><rect x="15" y="7" width="1" height="1" fill="#1b5a4f"/><rect x="0" y="8" width="1" height="1" fill="#1b5a4f"/><rect x="1" y="8" width="1" height="1" fill="#3dbf98"/><rect x="2" y="8" width="1" height="1" fill="#1b5a4f"/><rect x="3" y="8" width="10" height="1" fill="#3dbf98"/><rect x="13" y="8" width="1" height="1" fill="#1b5a4f"/><rect x="14" y="8" width="1" height="1" fill="#3dbf98"/><rect x="15" y="8" width="1" height="1" fill="#1b5a4f"/><rect x="0" y="9" width="1" height="1" fill="#1b5a4f"/><rect x="1" y="9" width="2" height="1" fill="#3dbf98"/><rect x="3" y="9" width="10" height="1" fill="#1b5a4f"/><rect x="13" y="9" width="2" height="1" fill="#3dbf98"/><rect x="15" y="9" width="1" height="1" fill="#1b5a4f"/><rect x="1" y="10" width="1" height="1" fill="#1b5a4f"/><rect x="2" y="10" width="2" height="1" fill="#3dbf98"/><rect x="4" y="10" width="8" height="1" fill="#a6e8cb"/><rect x="12" y="10" width="2" height="1" fill="#3dbf98"/><rect x="14" y="10" width="1" height="1" fill="#1b5a4f"/><rect x="1" y="11" width="1" height="1" fill="#1b5a4f"/><rect x="2" y="11" width="1" height="1" fill="#3dbf98"/><rect x="3" y="11" width="10" height="1" fill="#a6e8cb"/><rect x="13" y="11" width="1" height="1" fill="#3dbf98"/><rect x="14" y="11" width="1" height="1" fill="#1b5a4f"/><rect x="0" y="12" width="1" height="1" fill="#1b5a4f"/><rect x="1" y="12" width="3" height="1" fill="#3dbf98"/><rect x="4" y="12" width="1" height="1" fill="#1b5a4f"/><rect x="5" y="12" width="6" height="1" fill="#a6e8cb"/><rect x="11" y="12" width="1" height="1" fill="#1b5a4f"/><rect x="12" y="12" width="3" height="1" fill="#3dbf98"/><rect x="15" y="12" width="1" height="1" fill="#1b5a4f"/><rect x="0" y="13" width="4" height="1" fill="#1b5a4f"/><rect x="5" y="13" width="6" height="1" fill="#1b5a4f"/><rect x="12" y="13" width="4" height="1" fill="#1b5a4f"/></svg>
